#!OML:ASF E:\Style4\Style4.ASF
:FULLY-SPECIFIED
:DEGREES
973
root 0.332681 17.2125 -3.33638 5.61279 -3.8799 2.27735
lowerback 18.7899 2.19094 -1.50366
upperback 11.5797 2.59447 0.912509
thorax 1.8411 1.17909 1.37814
lowerneck 3.23022 -4.38862 -5.16227
upperneck 1.70484 -6.00719 2.78622
head 0.236728 -3.02962 1.76935
rclavicle -7.15625e-015 3.97569e-015
rhumerus -9.23742 20.0136 -71.5144
rradius 53.8435
rwrist -57.9796
rhand -19.455 8.24187
rfingers 7.12502
rthumb 6.86594 -21.6268
lclavicle -7.15625e-015 3.97569e-015
lhumerus -11.1278 -33.819 73.8741
lradius 65.8844
lwrist 39.6811
lhand 7.07934 29.0703
lfingers 7.12502
lthumb 32.3512 56.2052
rfemur -34.939 -0.774627 16.7507
rtibia 46.6157
rfoot -16.7551 -8.81005
rtoes -8.75269
lfemur -32.9553 2.09121 -22.5681
ltibia 45.535
lfoot -18.6238 9.30599
ltoes -13.0816
974
root 0.336281 17.202 -3.33821 5.59408 -3.91643 2.16361
lowerback 18.8502 2.20813 -1.47217
upperback 11.5614 2.61992 0.928099
thorax 1.79018 1.19311 1.37012
lowerneck 3.25054 -4.37355 -5.12268
upperneck 1.79727 -5.98707 2.77609
head 0.259691 -3.01997 1.75833
rclavicle -1.47101e-014 -8.74653e-015
rhumerus -9.28055 20.174 -71.465
rradius 53.5749
rwrist -57.9411
rhand -19.3844 8.27326
rfingers 7.12502
rthumb 6.93411 -21.5932
lclavicle -1.47101e-014 -8.74653e-015
lhumerus -11.0377 -33.9321 73.7992
lradius 65.8561
lwrist 39.1862
lhand 6.60769 29.1042
lfingers 7.12502
lthumb 31.9022 56.3297
rfemur -35.0009 -0.787103 16.8787
rtibia 46.7277
rfoot -16.7873 -8.80379
rtoes -9.03844
lfemur -33.0628 2.14789 -22.4521
ltibia 45.767
lfoot -18.7776 9.27178
ltoes -12.7501
975
root 0.341318 17.1934 -3.33878 5.57339 -3.94594 2.0722
lowerback 18.8577 2.21595 -1.47854
upperback 11.5774 2.62884 0.969476
thorax 1.80138 1.1953 1.41603
lowerneck 3.17965 -4.34361 -5.09093
upperneck 1.92298 -5.94246 2.65977
head 0.304126 -2.99772 1.71166
rclavicle -4.77083e-015 -4.77083e-015
rhumerus -9.26726 20.4055 -71.3043
rradius 53.2544
rwrist -57.9565
rhand -19.104 8.38913
rfingers 7.12502
rthumb 7.2048 -21.4682
lclavicle -4.77083e-015 -4.77083e-015
lhumerus -10.8624 -34.0795 73.7059
lradius 65.783
lwrist 38.975
lhand 5.73022 29.0212
lfingers 7.12502
lthumb 31.0662 56.41
rfemur -35.0514 -0.806322 16.9691
rtibia 46.8572
rfoot -16.8204 -8.7689
rtoes -9.03956
lfemur -33.1338 2.15653 -22.3582
ltibia 45.9659
lfoot -18.9373 9.20185
ltoes -12.3082
976
root 0.343711 17.1855 -3.34137 5.55499 -3.90535 2.09484
lowerback 18.8801 2.22898 -1.56146
upperback 11.5857 2.63322 0.950356
thorax 1.79679 1.19402 1.44119
lowerneck 3.12683 -4.34756 -4.95982
upperneck 1.99511 -5.94078 2.57358
head 0.328436 -2.99608 1.65873
rclavicle 2.46493e-014 3.18055e-015
rhumerus -9.3076 20.5658 -71.2227
rradius 52.967
rwrist -57.9373
rhand -18.9444 8.35265
rfingers 7.12502
rthumb 7.35884 -21.4994
lclavicle 2.46493e-014 3.18055e-015
lhumerus -10.589 -34.3201 73.5333
lradius 65.6532
lwrist 38.833
lhand 4.72649 29.1322
lfingers 7.12502
lthumb 30.1091 56.6997
rfemur -35.1177 -0.884539 16.9491
rtibia 46.9995
rfoot -16.8502 -8.81456
rtoes -9.49196
lfemur -33.2153 2.12637 -22.3852
ltibia 46.1224
lfoot -19.0105 9.11906
ltoes -12.162
977
root 0.342262 17.1779 -3.34586 5.53695 -3.81397 2.17978
lowerback 18.9562 2.23327 -1.7229
upperback 11.563 2.61376 0.908673
thorax 1.7301 1.17854 1.48826
lowerneck 3.23024 -4.33496 -4.89827
upperneck 1.91371 -5.92698 2.62215
head 0.284825 -2.98885 1.66757
rclavicle -2.38542e-015 -9.14409e-015
rhumerus -9.41709 20.7483 -71.1738
rradius 52.7692
rwrist -57.8773
rhand -18.9052 8.05441
rfingers 7.12502
rthumb 7.39664 -21.7963
lclavicle -2.38542e-015 -9.14409e-015
lhumerus -10.3596 -34.5339 73.3972
lradius 65.4165
lwrist 38.5367
lhand 3.8605 29.4673
lfingers 7.12502
lthumb 29.2825 57.1821
rfemur -35.1887 -1.01322 16.8756
rtibia 47.1583
rfoot -16.9637 -8.82398
rtoes -9.3248
lfemur -33.2998 2.04873 -22.4648
ltibia 46.2423
lfoot -19.0499 9.08186
ltoes -12.2751
978
root 0.341069 17.1714 -3.34691 5.51908 -3.74415 2.20691
lowerback 18.9824 2.22295 -1.87742
upperback 11.5469 2.57724 0.900934
thorax 1.69544 1.15326 1.5721
lowerneck 3.28359 -4.32091 -4.90839
upperneck 1.90647 -5.91112 2.64431
head 0.274007 -2.98125 1.67797
rclavicle -3.18055e-015 7.95139e-016
rhumerus -9.52926 20.9788 -71.0763
rradius 52.5673
rwrist -57.7785
rhand -18.6602 7.67415
rfingers 7.12502
rthumb 7.63314 -22.1681
lclavicle -3.18055e-015 7.95139e-016
lhumerus -10.2257 -34.5788 73.3783
lradius 65.1316
lwrist 38.1562
lhand 2.96675 29.4738
lfingers 7.12502
lthumb 28.4288 57.3343
rfemur -35.239 -1.13427 16.8692
rtibia 47.3143
rfoot -17.1129 -8.81339
rtoes -9.35493
lfemur -33.3637 2.02744 -22.4843
ltibia 46.3582
lfoot -19.0078 9.04697
ltoes -12.7304
979
root 0.340011 17.1638 -3.34594 5.50465 -3.73115 2.23967
lowerback 18.9744 2.22074 -2.11803
upperback 11.5327 2.53861 0.899598
thorax 1.67729 1.12199 1.71273
lowerneck 3.21097 -4.29607 -4.97003
upperneck 2.04513 -5.87771 2.68397
head 0.331239 -2.96557 1.69748
rclavicle 2.74323e-014 1.27222e-014
rhumerus -9.59961 21.3957 -70.9254
rradius 52.3863
rwrist -57.8141
rhand -18.4329 7.39516
rfingers 7.12502
rthumb 7.85255 -22.439
lclavicle 2.74323e-014 1.27222e-014
lhumerus -10.2069 -34.4412 73.4402
lradius 64.8471
lwrist 37.7467
lhand 1.94342 29.1843
lfingers 7.12502
lthumb 27.4505 57.2041
rfemur -35.3092 -1.24252 16.8584
rtibia 47.4562
rfoot -17.2083 -8.74965
rtoes -9.6075
lfemur -33.416 2.04885 -22.5062
ltibia 46.4918
lfoot -19.0934 8.91441
ltoes -12.552
980
root 0.33903 17.1561 -3.34706 5.55478 -3.72662 2.1616
lowerback 18.9623 2.21608 -2.30662
upperback 11.4777 2.50472 0.939103
thorax 1.61688 1.09507 1.8657
lowerneck 3.17811 -4.25385 -5.05833
upperneck 2.14236 -5.82391 2.74657
head 0.369639 -2.93989 1.73081
rclavicle 1.98785e-015 -2.38542e-015
rhumerus -9.71236 21.9725 -70.7312
rradius 52.2206
rwrist -57.9619
rhand -17.9922 7.19893
rfingers 7.12502
rthumb 8.27789 -22.6189
lclavicle 1.98785e-015 -2.38542e-015
lhumerus -10.2478 -34.2518 73.5604
lradius 64.5409
lwrist 37.2896
lhand 1.06827 29.1177
lfingers 7.12502
lthumb 26.6132 57.2674
rfemur -35.4296 -1.30895 16.9716
rtibia 47.5596
rfoot -17.2774 -8.72715
rtoes -9.69731
lfemur -33.5668 2.08918 -22.4102
ltibia 46.6575
lfoot -19.1548 8.7999
ltoes -12.29
981
root 0.336893 17.1489 -3.34975 5.65203 -3.71533 1.96877
lowerback 18.9374 2.21606 -2.34902
upperback 11.4488 2.49908 0.980547
thorax 1.59494 1.08894 1.93448
lowerneck 3.04351 -4.24214 -5.07975
upperneck 2.18813 -5.80396 2.81098
head 0.408508 -2.9298 1.75121
rclavicle 1.86858e-014 -1.07344e-014
rhumerus -9.76944 22.627 -70.471
rradius 51.9466
rwrist -58.0187
rhand -17.2444 7.36137
rfingers 7.12502
rthumb 8.99955 -22.4267
lclavicle 1.86858e-014 -1.07344e-014
lhumerus -10.0729 -34.1059 73.5872
lradius 64.1497
lwrist 36.8001
lhand 0.37238 29.2616
lfingers 7.12502
lthumb 25.947 57.5106
rfemur -35.5748 -1.32357 17.2089
rtibia 47.64
rfoot -17.367 -8.72314
rtoes -9.43141
lfemur -33.7965 2.14963 -22.1753
ltibia 46.8467
lfoot -19.185 8.64604
ltoes -12.0792
982
root 0.335457 17.1442 -3.35013 5.67304 -3.67317 1.85228
lowerback 18.9762 2.21206 -2.36825
upperback 11.4725 2.48981 0.94967
thorax 1.60241 1.08398 1.91365
lowerneck 2.79756 -4.24351 -5.1148
upperneck 2.25734 -5.79815 2.97143
head 0.477734 -2.92632 1.80186
rclavicle -7.15625e-015 5.96354e-015
rhumerus -9.83207 23.1797 -70.1787
rradius 51.7351
rwrist -57.9463
rhand -16.2476 7.43584
rfingers 7.12502
rthumb 9.96131 -22.3085
lclavicle -7.15625e-015 5.96354e-015
lhumerus -9.79648 -33.9726 73.5222
lradius 63.7704
lwrist 36.3548
lhand -0.392459 29.4093
lfingers 7.12502
lthumb 25.2144 57.7635
rfemur -35.6152 -1.3932 17.3623
rtibia 47.709
rfoot -17.4666 -8.72852
rtoes -9.51016
lfemur -33.9326 2.19948 -22.0292
ltibia 47.0409
lfoot -19.1924 8.52025
ltoes -12.2085
